<mxfile modified="2021-11-18T12:59:11.414Z" host="app.diagrams.net" agent="5.0 (Macintosh)" etag="y1yBs2W1fHxbTIvwEizQ" version="15.8.2" type="github">
  <diagram id="0mtNwWMX5RvCy_MMxNth" name="Page-1">
    <mxGraphModel dx="1077" dy="939" grid="1" gridSize="8" guides="1" tooltips="1" connect="1" arrows="1" fold="1" page="0" pageScale="1" pageWidth="583" pageHeight="413" math="0" shadow="0" extFonts="Roboto^https://fonts.googleapis.com/css?family=Roboto|Gill Sans^https://fonts.googleapis.com/css?family=Gill+Sans">
      <root>
        <mxCell id="0" />
        <mxCell id="1" parent="0" />
        <mxCell id="1WH3mMz11Aq4HH0t9_Tg-15" style="rounded=1;orthogonalLoop=1;jettySize=auto;html=1;endArrow=none;endFill=0;strokeColor=#FDF01B;strokeWidth=10;" parent="1" edge="1">
          <mxGeometry relative="1" as="geometry">
            <mxPoint x="149.5" y="-78" as="targetPoint" />
            <mxPoint x="25.5" y="-78" as="sourcePoint" />
          </mxGeometry>
        </mxCell>
        <mxCell id="1WH3mMz11Aq4HH0t9_Tg-17" value="&lt;font style=&quot;font-size: 24px&quot; face=&quot;Tahoma&quot;&gt;#FDF01B&lt;br&gt;&lt;/font&gt;" style="text;html=1;strokeColor=none;fillColor=none;align=left;verticalAlign=middle;whiteSpace=wrap;rounded=0;" parent="1" vertex="1">
          <mxGeometry x="175.5" y="-103" width="150" height="45" as="geometry" />
        </mxCell>
        <mxCell id="1WH3mMz11Aq4HH0t9_Tg-31" style="rounded=1;orthogonalLoop=1;jettySize=auto;html=1;exitX=1;exitY=0.5;exitDx=0;exitDy=0;endArrow=none;endFill=0;strokeColor=#AD6300;strokeWidth=10;fontColor=#0616B4;" parent="1" edge="1">
          <mxGeometry relative="1" as="geometry">
            <mxPoint x="149.5" y="22" as="targetPoint" />
            <mxPoint x="25.5" y="22" as="sourcePoint" />
          </mxGeometry>
        </mxCell>
        <mxCell id="1WH3mMz11Aq4HH0t9_Tg-32" style="rounded=1;orthogonalLoop=1;jettySize=auto;html=1;exitX=1;exitY=0.5;exitDx=0;exitDy=0;endArrow=none;endFill=0;strokeColor=#000000;strokeWidth=10;fontColor=#0616B4;" parent="1" edge="1">
          <mxGeometry relative="1" as="geometry">
            <mxPoint x="149.5" y="-378" as="targetPoint" />
            <mxPoint x="25.5" y="-378" as="sourcePoint" />
          </mxGeometry>
        </mxCell>
        <mxCell id="1WH3mMz11Aq4HH0t9_Tg-33" style="rounded=1;orthogonalLoop=1;jettySize=auto;html=1;exitX=1;exitY=0.5;exitDx=0;exitDy=0;endArrow=none;endFill=0;strokeColor=#0616B4;strokeWidth=10;fontColor=#0616B4;" parent="1" edge="1">
          <mxGeometry relative="1" as="geometry">
            <mxPoint x="149.5" y="-328" as="targetPoint" />
            <mxPoint x="25.5" y="-328" as="sourcePoint" />
          </mxGeometry>
        </mxCell>
        <mxCell id="1WH3mMz11Aq4HH0t9_Tg-34" style="rounded=1;orthogonalLoop=1;jettySize=auto;html=1;exitX=1;exitY=0.5;exitDx=0;exitDy=0;endArrow=none;endFill=0;strokeColor=#0198D4;strokeWidth=10;fontColor=#0616B4;" parent="1" edge="1">
          <mxGeometry relative="1" as="geometry">
            <mxPoint x="149.5" y="-278" as="targetPoint" />
            <mxPoint x="25.5" y="-278" as="sourcePoint" />
          </mxGeometry>
        </mxCell>
        <mxCell id="1WH3mMz11Aq4HH0t9_Tg-35" style="rounded=1;orthogonalLoop=1;jettySize=auto;html=1;exitX=1;exitY=0.5;exitDx=0;exitDy=0;endArrow=none;endFill=0;strokeColor=#980059;strokeWidth=10;fontColor=#0616B4;" parent="1" edge="1">
          <mxGeometry relative="1" as="geometry">
            <mxPoint x="149.5" y="-228" as="targetPoint" />
            <mxPoint x="25.5" y="-228" as="sourcePoint" />
          </mxGeometry>
        </mxCell>
        <mxCell id="1WH3mMz11Aq4HH0t9_Tg-36" style="rounded=1;orthogonalLoop=1;jettySize=auto;html=1;exitX=1;exitY=0.5;exitDx=0;exitDy=0;endArrow=none;endFill=0;strokeColor=#e22219;strokeWidth=10;fontColor=#0616B4;" parent="1" edge="1">
          <mxGeometry relative="1" as="geometry">
            <mxPoint x="149.5" y="-178" as="targetPoint" />
            <mxPoint x="25.5" y="-178" as="sourcePoint" />
          </mxGeometry>
        </mxCell>
        <mxCell id="1WH3mMz11Aq4HH0t9_Tg-37" style="rounded=1;orthogonalLoop=1;jettySize=auto;html=1;exitX=1;exitY=0.5;exitDx=0;exitDy=0;endArrow=none;endFill=0;strokeColor=#F7AABA;strokeWidth=10;fontColor=#0616B4;" parent="1" edge="1">
          <mxGeometry relative="1" as="geometry">
            <mxPoint x="149.5" y="-128" as="targetPoint" />
            <mxPoint x="25.5" y="-128" as="sourcePoint" />
          </mxGeometry>
        </mxCell>
        <mxCell id="1WH3mMz11Aq4HH0t9_Tg-38" style="rounded=1;orthogonalLoop=1;jettySize=auto;html=1;exitX=1;exitY=0.5;exitDx=0;exitDy=0;endArrow=none;endFill=0;strokeColor=#A3A2A5;strokeWidth=10;fontColor=#0616B4;" parent="1" edge="1">
          <mxGeometry relative="1" as="geometry">
            <mxPoint x="149.5" y="72" as="targetPoint" />
            <mxPoint x="25.5" y="72" as="sourcePoint" />
          </mxGeometry>
        </mxCell>
        <mxCell id="1WH3mMz11Aq4HH0t9_Tg-41" value="&lt;font style=&quot;font-size: 24px&quot; face=&quot;Tahoma&quot;&gt;#037B35&lt;br&gt;&lt;/font&gt;" style="text;html=1;strokeColor=none;fillColor=none;align=left;verticalAlign=middle;whiteSpace=wrap;rounded=0;" parent="1" vertex="1">
          <mxGeometry x="175.5" y="-53" width="150" height="45" as="geometry" />
        </mxCell>
        <mxCell id="1WH3mMz11Aq4HH0t9_Tg-42" value="&lt;font style=&quot;font-size: 24px&quot; face=&quot;Tahoma&quot;&gt;#AD6300&lt;br&gt;&lt;/font&gt;" style="text;html=1;strokeColor=none;fillColor=none;align=left;verticalAlign=middle;whiteSpace=wrap;rounded=0;" parent="1" vertex="1">
          <mxGeometry x="175.5" y="-3" width="150" height="45" as="geometry" />
        </mxCell>
        <mxCell id="1WH3mMz11Aq4HH0t9_Tg-43" value="&lt;font style=&quot;font-size: 24px&quot; face=&quot;Tahoma&quot;&gt;#A3A2A5&lt;br&gt;&lt;/font&gt;" style="text;html=1;strokeColor=none;fillColor=none;align=left;verticalAlign=middle;whiteSpace=wrap;rounded=0;" parent="1" vertex="1">
          <mxGeometry x="175.5" y="47" width="150" height="45" as="geometry" />
        </mxCell>
        <mxCell id="1WH3mMz11Aq4HH0t9_Tg-44" value="&lt;font style=&quot;font-size: 24px&quot; face=&quot;Tahoma&quot;&gt;#F7AABA&lt;br&gt;&lt;/font&gt;" style="text;html=1;strokeColor=none;fillColor=none;align=left;verticalAlign=middle;whiteSpace=wrap;rounded=0;" parent="1" vertex="1">
          <mxGeometry x="175.5" y="-153" width="150" height="45" as="geometry" />
        </mxCell>
        <mxCell id="1WH3mMz11Aq4HH0t9_Tg-45" value="&lt;font style=&quot;font-size: 24px&quot; face=&quot;Tahoma&quot;&gt;#E22219&lt;br&gt;&lt;/font&gt;" style="text;html=1;strokeColor=none;fillColor=none;align=left;verticalAlign=middle;whiteSpace=wrap;rounded=0;" parent="1" vertex="1">
          <mxGeometry x="176.5" y="-203" width="150" height="45" as="geometry" />
        </mxCell>
        <mxCell id="1WH3mMz11Aq4HH0t9_Tg-46" value="&lt;font style=&quot;font-size: 24px&quot; face=&quot;Tahoma&quot;&gt;#980059&lt;br&gt;&lt;/font&gt;" style="text;html=1;strokeColor=none;fillColor=none;align=left;verticalAlign=middle;whiteSpace=wrap;rounded=0;" parent="1" vertex="1">
          <mxGeometry x="175.5" y="-253" width="150" height="45" as="geometry" />
        </mxCell>
        <mxCell id="1WH3mMz11Aq4HH0t9_Tg-47" value="&lt;font style=&quot;font-size: 24px&quot; face=&quot;Tahoma&quot;&gt;#0198D4&lt;br&gt;&lt;/font&gt;" style="text;html=1;strokeColor=none;fillColor=none;align=left;verticalAlign=middle;whiteSpace=wrap;rounded=0;" parent="1" vertex="1">
          <mxGeometry x="176.5" y="-303" width="150" height="45" as="geometry" />
        </mxCell>
        <mxCell id="1WH3mMz11Aq4HH0t9_Tg-48" value="&lt;font style=&quot;font-size: 24px&quot; face=&quot;Tahoma&quot;&gt;#0616B4&lt;br&gt;&lt;/font&gt;" style="text;html=1;strokeColor=none;fillColor=none;align=left;verticalAlign=middle;whiteSpace=wrap;rounded=0;" parent="1" vertex="1">
          <mxGeometry x="175.5" y="-353" width="150" height="45" as="geometry" />
        </mxCell>
        <mxCell id="1WH3mMz11Aq4HH0t9_Tg-49" value="&lt;font style=&quot;font-size: 24px&quot; face=&quot;Tahoma&quot;&gt;#000000&lt;br&gt;&lt;/font&gt;" style="text;html=1;strokeColor=none;fillColor=none;align=left;verticalAlign=middle;whiteSpace=wrap;rounded=0;" parent="1" vertex="1">
          <mxGeometry x="175.5" y="-403" width="150" height="45" as="geometry" />
        </mxCell>
        <mxCell id="1WH3mMz11Aq4HH0t9_Tg-60" value="" style="ellipse;whiteSpace=wrap;html=1;aspect=fixed;strokeWidth=5;" parent="1" vertex="1">
          <mxGeometry x="709" y="-45.5" width="30" height="30" as="geometry" />
        </mxCell>
        <mxCell id="1WH3mMz11Aq4HH0t9_Tg-81" style="rounded=1;orthogonalLoop=1;jettySize=auto;html=1;endArrow=none;endFill=0;strokeColor=#FDF01B;strokeWidth=10;dashed=1;dashPattern=1 1;" parent="1" edge="1">
          <mxGeometry relative="1" as="geometry">
            <mxPoint x="446.5" y="-77.71428571428555" as="targetPoint" />
            <mxPoint x="311.3571428571431" y="-77.71428571428555" as="sourcePoint" />
          </mxGeometry>
        </mxCell>
        <mxCell id="1WH3mMz11Aq4HH0t9_Tg-82" style="rounded=1;orthogonalLoop=1;jettySize=auto;html=1;exitX=1;exitY=0.5;exitDx=0;exitDy=0;endArrow=none;endFill=0;strokeColor=#037B35;strokeWidth=10;fontColor=#0616B4;dashed=1;dashPattern=1 1;" parent="1" edge="1">
          <mxGeometry relative="1" as="geometry">
            <mxPoint x="446.5" y="-27.714285714285552" as="targetPoint" />
            <mxPoint x="311.3571428571431" y="-27.714285714285552" as="sourcePoint" />
          </mxGeometry>
        </mxCell>
        <mxCell id="1WH3mMz11Aq4HH0t9_Tg-83" style="rounded=1;orthogonalLoop=1;jettySize=auto;html=1;exitX=1;exitY=0.5;exitDx=0;exitDy=0;endArrow=none;endFill=0;strokeColor=#AD6300;strokeWidth=10;fontColor=#0616B4;dashed=1;dashPattern=1 1;" parent="1" edge="1">
          <mxGeometry relative="1" as="geometry">
            <mxPoint x="446.5" y="22" as="targetPoint" />
            <mxPoint x="311.5" y="22" as="sourcePoint" />
          </mxGeometry>
        </mxCell>
        <mxCell id="1WH3mMz11Aq4HH0t9_Tg-84" style="rounded=1;orthogonalLoop=1;jettySize=auto;html=1;exitX=1;exitY=0.5;exitDx=0;exitDy=0;endArrow=none;endFill=0;strokeColor=#000000;strokeWidth=10;fontColor=#0616B4;dashed=1;dashPattern=1 1;" parent="1" edge="1">
          <mxGeometry relative="1" as="geometry">
            <mxPoint x="446.5" y="-378" as="targetPoint" />
            <mxPoint x="311.5" y="-378" as="sourcePoint" />
          </mxGeometry>
        </mxCell>
        <mxCell id="1WH3mMz11Aq4HH0t9_Tg-85" style="rounded=1;orthogonalLoop=1;jettySize=auto;html=1;exitX=1;exitY=0.5;exitDx=0;exitDy=0;endArrow=none;endFill=0;strokeColor=#0616B4;strokeWidth=10;fontColor=#0616B4;dashed=1;dashPattern=1 1;" parent="1" edge="1">
          <mxGeometry relative="1" as="geometry">
            <mxPoint x="446.5" y="-328" as="targetPoint" />
            <mxPoint x="311.5" y="-328" as="sourcePoint" />
          </mxGeometry>
        </mxCell>
        <mxCell id="1WH3mMz11Aq4HH0t9_Tg-86" style="rounded=1;orthogonalLoop=1;jettySize=auto;html=1;exitX=1;exitY=0.5;exitDx=0;exitDy=0;endArrow=none;endFill=0;strokeColor=#0198D4;strokeWidth=10;fontColor=#0616B4;dashed=1;dashPattern=1 1;" parent="1" edge="1">
          <mxGeometry relative="1" as="geometry">
            <mxPoint x="446.5" y="-278" as="targetPoint" />
            <mxPoint x="311.5" y="-278" as="sourcePoint" />
          </mxGeometry>
        </mxCell>
        <mxCell id="1WH3mMz11Aq4HH0t9_Tg-87" style="rounded=1;orthogonalLoop=1;jettySize=auto;html=1;exitX=1;exitY=0.5;exitDx=0;exitDy=0;endArrow=none;endFill=0;strokeColor=#980059;strokeWidth=10;fontColor=#0616B4;dashed=1;dashPattern=1 1;" parent="1" edge="1">
          <mxGeometry relative="1" as="geometry">
            <mxPoint x="446.5" y="-228" as="targetPoint" />
            <mxPoint x="311.5" y="-228" as="sourcePoint" />
          </mxGeometry>
        </mxCell>
        <mxCell id="1WH3mMz11Aq4HH0t9_Tg-88" style="rounded=1;orthogonalLoop=1;jettySize=auto;html=1;exitX=1;exitY=0.5;exitDx=0;exitDy=0;endArrow=none;endFill=0;strokeColor=#e22219;strokeWidth=10;fontColor=#0616B4;dashed=1;dashPattern=1 1;" parent="1" edge="1">
          <mxGeometry relative="1" as="geometry">
            <mxPoint x="446.5" y="-178" as="targetPoint" />
            <mxPoint x="311.5" y="-178" as="sourcePoint" />
          </mxGeometry>
        </mxCell>
        <mxCell id="1WH3mMz11Aq4HH0t9_Tg-89" style="rounded=1;orthogonalLoop=1;jettySize=auto;html=1;exitX=1;exitY=0.5;exitDx=0;exitDy=0;endArrow=none;endFill=0;strokeColor=#F7AABA;strokeWidth=10;fontColor=#0616B4;dashed=1;dashPattern=1 1;" parent="1" edge="1">
          <mxGeometry relative="1" as="geometry">
            <mxPoint x="446.5" y="-128" as="targetPoint" />
            <mxPoint x="311.5" y="-128" as="sourcePoint" />
          </mxGeometry>
        </mxCell>
        <mxCell id="1WH3mMz11Aq4HH0t9_Tg-90" style="rounded=1;orthogonalLoop=1;jettySize=auto;html=1;exitX=1;exitY=0.5;exitDx=0;exitDy=0;endArrow=none;endFill=0;strokeColor=#A3A2A5;strokeWidth=10;fontColor=#0616B4;dashed=1;dashPattern=1 1;" parent="1" edge="1">
          <mxGeometry relative="1" as="geometry">
            <mxPoint x="446.5" y="72" as="targetPoint" />
            <mxPoint x="311.5" y="72" as="sourcePoint" />
          </mxGeometry>
        </mxCell>
        <mxCell id="Wp-hAPU8DO_UpOxfyrP1-14" value="" style="endArrow=none;html=1;strokeWidth=10;strokeColor=#E22219;entryX=0;entryY=0.5;entryDx=0;entryDy=0;" parent="1" target="Wp-hAPU8DO_UpOxfyrP1-16" edge="1">
          <mxGeometry width="50" height="50" relative="1" as="geometry">
            <mxPoint x="44" y="572" as="sourcePoint" />
            <mxPoint x="119" y="667" as="targetPoint" />
          </mxGeometry>
        </mxCell>
        <mxCell id="Wp-hAPU8DO_UpOxfyrP1-15" value="" style="endArrow=none;html=1;strokeColor=#E22219;strokeWidth=10;" parent="1" edge="1">
          <mxGeometry width="50" height="50" relative="1" as="geometry">
            <mxPoint x="40.5" y="587" as="sourcePoint" />
            <mxPoint x="40.5" y="557" as="targetPoint" />
          </mxGeometry>
        </mxCell>
        <mxCell id="Wp-hAPU8DO_UpOxfyrP1-22" style="edgeStyle=orthogonalEdgeStyle;rounded=1;orthogonalLoop=1;jettySize=auto;html=1;exitX=1;exitY=0.5;exitDx=0;exitDy=0;endArrow=none;endFill=0;strokeColor=#E22219;strokeWidth=10;" parent="1" source="Wp-hAPU8DO_UpOxfyrP1-16" edge="1">
          <mxGeometry relative="1" as="geometry">
            <mxPoint x="394" y="572" as="targetPoint" />
          </mxGeometry>
        </mxCell>
        <mxCell id="Wp-hAPU8DO_UpOxfyrP1-41" style="edgeStyle=orthogonalEdgeStyle;rounded=1;orthogonalLoop=1;jettySize=auto;html=1;exitX=1;exitY=0.5;exitDx=0;exitDy=0;endArrow=none;endFill=0;strokeColor=#980059;strokeWidth=10;dashed=1;dashPattern=1 1;" parent="1" source="Wp-hAPU8DO_UpOxfyrP1-10" edge="1">
          <mxGeometry relative="1" as="geometry">
            <mxPoint x="904" y="262" as="targetPoint" />
          </mxGeometry>
        </mxCell>
        <mxCell id="Wp-hAPU8DO_UpOxfyrP1-19" style="edgeStyle=orthogonalEdgeStyle;rounded=1;orthogonalLoop=1;jettySize=auto;html=1;exitX=1;exitY=0.5;exitDx=0;exitDy=0;entryX=0.5;entryY=0;entryDx=0;entryDy=0;endArrow=none;endFill=0;strokeColor=#980059;strokeWidth=10;" parent="1" source="Wp-hAPU8DO_UpOxfyrP1-10" target="Wp-hAPU8DO_UpOxfyrP1-16" edge="1">
          <mxGeometry relative="1" as="geometry">
            <Array as="points">
              <mxPoint x="154" y="262" />
            </Array>
          </mxGeometry>
        </mxCell>
        <mxCell id="Wp-hAPU8DO_UpOxfyrP1-24" value="" style="endArrow=none;html=1;strokeColor=#E22219;strokeWidth=10;exitX=0;exitY=1;exitDx=0;exitDy=0;rounded=1;" parent="1" source="Wp-hAPU8DO_UpOxfyrP1-8" edge="1">
          <mxGeometry width="50" height="50" relative="1" as="geometry">
            <mxPoint x="634" y="436" as="sourcePoint" />
            <mxPoint x="394" y="572" as="targetPoint" />
            <Array as="points">
              <mxPoint x="454" y="572" />
            </Array>
          </mxGeometry>
        </mxCell>
        <mxCell id="Wp-hAPU8DO_UpOxfyrP1-25" value="" style="endArrow=none;html=1;strokeColor=#E22219;strokeWidth=10;" parent="1" edge="1">
          <mxGeometry width="50" height="50" relative="1" as="geometry">
            <mxPoint x="393.5" y="587" as="sourcePoint" />
            <mxPoint x="393" y="567" as="targetPoint" />
          </mxGeometry>
        </mxCell>
        <mxCell id="Wp-hAPU8DO_UpOxfyrP1-9" value="" style="edgeStyle=orthogonalEdgeStyle;rounded=0;orthogonalLoop=1;jettySize=auto;html=1;strokeColor=#0198D4;strokeWidth=10;endArrow=none;endFill=0;dashed=1;dashPattern=1 1;" parent="1" source="Wp-hAPU8DO_UpOxfyrP1-5" target="Wp-hAPU8DO_UpOxfyrP1-8" edge="1">
          <mxGeometry relative="1" as="geometry" />
        </mxCell>
        <mxCell id="Wp-hAPU8DO_UpOxfyrP1-33" value="" style="endArrow=none;html=1;strokeWidth=10;strokeColor=#037B35;entryX=0;entryY=1;entryDx=0;entryDy=0;" parent="1" target="Wp-hAPU8DO_UpOxfyrP1-26" edge="1">
          <mxGeometry width="50" height="50" relative="1" as="geometry">
            <mxPoint x="494" y="727" as="sourcePoint" />
            <mxPoint x="624" y="727" as="targetPoint" />
            <Array as="points">
              <mxPoint x="544" y="727" />
              <mxPoint x="614" y="727" />
            </Array>
          </mxGeometry>
        </mxCell>
        <mxCell id="Wp-hAPU8DO_UpOxfyrP1-35" value="" style="endArrow=none;html=1;strokeColor=#037B35;strokeWidth=10;" parent="1" edge="1">
          <mxGeometry width="50" height="50" relative="1" as="geometry">
            <mxPoint x="494" y="742.5" as="sourcePoint" />
            <mxPoint x="494" y="712.5" as="targetPoint" />
          </mxGeometry>
        </mxCell>
        <mxCell id="Wp-hAPU8DO_UpOxfyrP1-36" value="" style="endArrow=none;html=1;strokeColor=#037B35;strokeWidth=10;" parent="1" edge="1">
          <mxGeometry width="50" height="50" relative="1" as="geometry">
            <mxPoint x="694" y="576" as="sourcePoint" />
            <mxPoint x="674" y="566" as="targetPoint" />
            <Array as="points">
              <mxPoint x="674" y="566" />
            </Array>
          </mxGeometry>
        </mxCell>
        <mxCell id="Wp-hAPU8DO_UpOxfyrP1-27" style="edgeStyle=orthogonalEdgeStyle;rounded=1;orthogonalLoop=1;jettySize=auto;html=1;exitX=1;exitY=0.5;exitDx=0;exitDy=0;entryX=0;entryY=0.5;entryDx=0;entryDy=0;endArrow=none;endFill=0;strokeColor=#0198D4;strokeWidth=10;" parent="1" source="Wp-hAPU8DO_UpOxfyrP1-8" target="Wp-hAPU8DO_UpOxfyrP1-26" edge="1">
          <mxGeometry relative="1" as="geometry" />
        </mxCell>
        <mxCell id="Wp-hAPU8DO_UpOxfyrP1-40" value="" style="endArrow=none;html=1;strokeColor=#0198D4;strokeWidth=10;" parent="1" edge="1">
          <mxGeometry width="50" height="50" relative="1" as="geometry">
            <mxPoint x="988" y="441.5" as="sourcePoint" />
            <mxPoint x="988" y="420.5" as="targetPoint" />
          </mxGeometry>
        </mxCell>
        <mxCell id="Wp-hAPU8DO_UpOxfyrP1-43" value="" style="endArrow=none;html=1;strokeWidth=10;strokeColor=#980059;entryX=0;entryY=0;entryDx=0;entryDy=0;" parent="1" target="Wp-hAPU8DO_UpOxfyrP1-44" edge="1">
          <mxGeometry width="50" height="50" relative="1" as="geometry">
            <mxPoint x="904" y="262" as="sourcePoint" />
            <mxPoint x="1264" y="107" as="targetPoint" />
            <Array as="points">
              <mxPoint x="1264" y="262" />
            </Array>
          </mxGeometry>
        </mxCell>
        <mxCell id="Wp-hAPU8DO_UpOxfyrP1-60" style="edgeStyle=orthogonalEdgeStyle;rounded=0;orthogonalLoop=1;jettySize=auto;html=1;exitX=1;exitY=0.5;exitDx=0;exitDy=0;endArrow=none;endFill=0;strokeColor=#980059;strokeWidth=10;" parent="1" source="Wp-hAPU8DO_UpOxfyrP1-44" edge="1">
          <mxGeometry relative="1" as="geometry">
            <mxPoint x="1663" y="415" as="targetPoint" />
            <Array as="points">
              <mxPoint x="1353" y="415" />
            </Array>
          </mxGeometry>
        </mxCell>
        <mxCell id="Wp-hAPU8DO_UpOxfyrP1-29" style="edgeStyle=orthogonalEdgeStyle;rounded=1;orthogonalLoop=1;jettySize=auto;html=1;exitX=1;exitY=0.5;exitDx=0;exitDy=0;endArrow=none;endFill=0;strokeColor=#0198D4;strokeWidth=10;entryX=0;entryY=0.5;entryDx=0;entryDy=0;" parent="1" source="Wp-hAPU8DO_UpOxfyrP1-26" target="Wp-hAPU8DO_UpOxfyrP1-44" edge="1">
          <mxGeometry relative="1" as="geometry">
            <mxPoint x="1204" y="416.66666666666697" as="targetPoint" />
          </mxGeometry>
        </mxCell>
        <mxCell id="Wp-hAPU8DO_UpOxfyrP1-56" value="" style="endArrow=none;html=1;strokeColor=#980059;strokeWidth=10;" parent="1" edge="1">
          <mxGeometry width="50" height="50" relative="1" as="geometry">
            <mxPoint x="953" y="262.5" as="sourcePoint" />
            <mxPoint x="953" y="241.5" as="targetPoint" />
          </mxGeometry>
        </mxCell>
        <mxCell id="Wp-hAPU8DO_UpOxfyrP1-57" value="" style="endArrow=none;html=1;strokeColor=#980059;strokeWidth=10;" parent="1" edge="1">
          <mxGeometry width="50" height="50" relative="1" as="geometry">
            <mxPoint x="1224" y="264" as="sourcePoint" />
            <mxPoint x="1224" y="243" as="targetPoint" />
          </mxGeometry>
        </mxCell>
        <mxCell id="1WH3mMz11Aq4HH0t9_Tg-28" value="&lt;font style=&quot;font-size: 24px&quot;&gt;&lt;font face=&quot;Roboto&quot;&gt;Action / decision&lt;/font&gt;&lt;br&gt;&lt;/font&gt;" style="text;html=1;strokeColor=none;fillColor=none;align=center;verticalAlign=middle;whiteSpace=wrap;rounded=0;" parent="1" vertex="1">
          <mxGeometry x="-69" y="173" width="216" height="47" as="geometry" />
        </mxCell>
        <mxCell id="1WH3mMz11Aq4HH0t9_Tg-92" value="&lt;font style=&quot;font-size: 24px&quot;&gt;Event&amp;nbsp;&lt;br&gt;&lt;/font&gt;" style="text;html=1;strokeColor=none;fillColor=none;align=center;verticalAlign=middle;whiteSpace=wrap;rounded=0;fontFamily=Roboto;" parent="1" vertex="1">
          <mxGeometry x="842.5" y="173" width="216" height="47" as="geometry" />
        </mxCell>
        <mxCell id="1WH3mMz11Aq4HH0t9_Tg-93" value="" style="endArrow=none;html=1;strokeColor=#980059;strokeWidth=10;" parent="1" edge="1">
          <mxGeometry width="50" height="50" relative="1" as="geometry">
            <mxPoint x="1664" y="431.00000000000045" as="sourcePoint" />
            <mxPoint x="1664" y="401" as="targetPoint" />
          </mxGeometry>
        </mxCell>
        <mxCell id="Wp-hAPU8DO_UpOxfyrP1-44" value="" style="ellipse;whiteSpace=wrap;html=1;aspect=fixed;strokeWidth=5;" parent="1" vertex="1">
          <mxGeometry x="1324" y="401" width="30" height="30" as="geometry" />
        </mxCell>
        <mxCell id="Wp-hAPU8DO_UpOxfyrP1-26" value="" style="ellipse;whiteSpace=wrap;html=1;aspect=fixed;strokeWidth=5;" parent="1" vertex="1">
          <mxGeometry x="724" y="401" width="30" height="30" as="geometry" />
        </mxCell>
        <mxCell id="Wp-hAPU8DO_UpOxfyrP1-16" value="" style="ellipse;whiteSpace=wrap;html=1;aspect=fixed;strokeWidth=5;" parent="1" vertex="1">
          <mxGeometry x="139" y="557" width="30" height="30" as="geometry" />
        </mxCell>
        <mxCell id="Wp-hAPU8DO_UpOxfyrP1-5" value="" style="ellipse;whiteSpace=wrap;html=1;aspect=fixed;strokeWidth=5;" parent="1" vertex="1">
          <mxGeometry x="-166" y="401" width="30" height="30" as="geometry" />
        </mxCell>
        <mxCell id="1WH3mMz11Aq4HH0t9_Tg-123" value="" style="group" parent="1" vertex="1" connectable="0">
          <mxGeometry x="936" y="-101.5" width="690.5" height="157.5" as="geometry" />
        </mxCell>
        <mxCell id="1WH3mMz11Aq4HH0t9_Tg-104" value="" style="shape=image;verticalLabelPosition=bottom;labelBackgroundColor=#ffffff;verticalAlign=top;aspect=fixed;imageAspect=0;image=data:image/png,iVBORw0KGgoAAAANSUhEUgAAAgAAAAIACAQAAABecRxxAAAABGdBTUEAALGPC/xhBQAAACBjSFJNAAB6JgAAgIQAAPoAAACA6AAAdTAAAOpgAAA6mAAAF3CculE8AAAAAmJLR0QAAKqNIzIAAAAJcEhZcwAADsQAAA7EAZUrDhsAAAAHdElNRQfjCxANKCuC9GG7AAAm/klEQVR42u3deWAW1bkG8CcJaZAACoiExYpoAcumbNpaURAVra2KCogWtVVEq+KGtt4uXu9ta6lWgVal7XXBute9VloFtFoXlIIgslgX1MiOEBLCkuS7f4TAl+RbZnnPvGfmPL/5wwW+M+85M3kz38yc8wJEREREREREREREREREREREREREREREREREREREREREREREREREREREREREREREREREREREREREREREREREREREREREREREREREREREREREREREREREiVSgHYC4buiDXuiFr6E99kUpSlGHKlSiEmuxAiuwEkuwQTtIslJH9ENP9EJPdEIblKIUhahCFbZgEz7AcqzA+/hcO0hZyUkAZTgewzEcPfL+zRSWYi7mYR62aAdNVtgPwzEcI/B1Dz8PH2Ie5mEO1moHTQ1a4mw8h11I+dy24zmcjWLt8ElREUZiFqp8nzu1eA0T0Vo7fOqBu1Dh+/Clb2vxv+io3Q1S0BG/wLpQ504F7kR37W646xDMDPB7P9NWiWnopt0dilAn3BLg937ma4HHcJh2d9yzH6ahRuQANmw7cAtaaneLItASN6Fa9NypxSzsr90tdxRgAtaKHsCG7T84WbtzZNgILDNy7mzEZBRqd84FZXjJyAFs2O5BK+0ukiGluN/oufMPdNLuYtINxxdGD2EKKSxDP+1ukgGHYYnxc2ctTtTuZpL9FLXGD2EKKVThHO2ukrDzsC2Sc6cGN2p3NZmKcFckB7B+q8P12h0mQZMj+tVRv92DFtodTpoSPBrhAazfpvGmTiIU4JbIz52nsI92t5PkK5gd+SFMIYUZ2h0nAb9XOXde4DumUgpwn8ohTCGFn2p3nkK6Se3ceYhXkDJ+q3YIU0jhCu3uUwiTVM+d32l3PwkuUz2EKdRghPYQUEAnRHrrL9N2ifYQxF3/iB7e5NrWoLP2MFAAnSJ4ZyTfth1HaA9DnLXGcvVDmEIKc1GkPRTkUyFeVD9vUkjhA7TVHor4Mvvipp+NbwXEzY/Uz5mG7V7toYirY1CnfvAatirO+46Vr6JS/Zxp2OpwnPZwxFELLFY/dOnbk9oDQj48q36+pG/v8Z0A/6aoH7amG6cKx8Wp6udK0+0a7SGJm1KsVz9oTbd/J2gJ1WRboH6uNN022Lp+oK3vKl1m4QorR+Ak7RDIg1MxUDuEZjpgonYIcVKCcvWcnWl7XXtgyIPX1M+TTNtqO6cH2XkFMAFdtEPI6Bv4pnYIlMe3cLR2CBmVYbx2CJnYmQAu0A4gqwnaAVAeF2gHkNX52gFkYuNtrUOx0sq4AOBLdMYO7SAoq5ZYjf20g8gihUPxkXYQTdl4BfA9a3/8gXY4VTsEyuEMa3/8gQKcpx1CczYmgLO0A8jpbO0AKIcztQPIycIz277ftZ1RbmFUe61DGVLaQYjYBwPRBV1QgDUox0JUagcUWiHWWvj4eK8UOrOoaD7j1R/Y5Nv6ag9RaIUYhyeblMaqxvO4IOavrB6ufm7k28ZqD5H9/qh+kPJtV2oPUUgn492sfVuJs62+/srtGvVzI992t/YQ2c988Yaw28PaQxRCkYcVch+JbW2k6FeO9rst1h4i2xUKl200sf1be5ACa+1xkYy3rP4mnd27Ro+7xFbNpWVy66F+iPJvlTG9SC7E0577+BpKtMMN0D+Zgt9mt+7aw9R00OzSSzsAD0rRVTuEQG7GaZ7/7tGYrh2ubwfG4quLZWe4bQngYO0APOmhHUAAvXCDr78/0dJ36rPjuROAbQkgHgsoxiPKxm7xXa/u1ph91YnHUbEsStsSQBvtABIUZbqeON33Z46K2TVAPI6KZVHalgAsXTelCcsOogdnBPrU6dph+xKPo2JZlLYlgDjcxgFKtQPw7TuBPvVd7bB9sXLBjWYsO3dsSwDbtQPwpFo7AN8GBPrU12LyQ1WP504AtiWArdoBJCjKvVoH/mpl58pMmcVjMlOFdgCN2ZYAeBBNKAv8yThVRYxHWrYsStsSQDx+tCw7iHkFf6svTu8D8twJwLYE8Kl2AJ6s0g6AMuC5E4BtCWCFdgAe7IjJqeaaj2OxWqNlZ7htCeAj7NIOIa8PUKsdAmVQa9+Sm83swifaITRmWwLYFYODaFkOpz2WaweQ14e2/YKzLQEAb2sHkNd87QAoC/vPnbe0A2jKvgQwTzuAvOZqB0BZ2H/uWBehfQngJe0A8tiMhdohUBbvWP8o8GXtAJqyLwF8avldgJd5C9BaNXhVO4ScPrDtIaCNCQB4UjuAGEfnuqe0A8jJwnPHxgRwn3YAOVRZfoq57nFs0w4hhwe1A2jOxgSwFIu0Q8jqyZjMVnBVBZ7RDiGrBViiHUJzNiYA4H7tALJ6QDsAyoPnTgK0xSb15ZszbYtitkpegz6Be3y8dui+FWCx+nmSadto21pA9ey8AqjADO0QMvoFklEWNMlS+JV2CBlNt20eoN3ao0I9ZzfdllmaLvNz6QoAKMIK9XOl6bYF7bSHJTNbT+lNFhamuAl12iGQB7W4WTuEZu7Al9ohxM0++Eg9b6dvr8T0+z/g2hUAUIC56udL+rbKtqVA97L1CgCoxtXaIaTZiUng9/+4SOFyq2bdXY4q7RCysTcBAM/gOe0Q9vgtlmmHQD68j9u1Q9jDpvM4Zg5AufrlWwopvB2rtfGac+0rAACUYIH6eZNCCmtCLMkaAZuvAIB1GG/B1JvNGBuLxaYo3Q6MwRbtIFCHc7FGO4hc7E4AwCv4H+0QcJHl8xMpsw9xsXYI+BnmaIcQdwW4X/US7qfaAyDAxa8A9f5b9dx5yPpfsLFQjBfUDuFd2p0X4W4CAKapnTtzYn7nyCJt8LbKIXwsIRnc5QRQhCdUzp35Mal0HRP74Z+RH8I/o1i720JcTgBAC9wT+bnzBjpodztpSvB4pIdwWkJ++wOuJwCgAFMjPXeejlVV5dgowl0RHcBduEa7s6JcTwAAMAU1EZ09M1Ck3dnkOhObjR/AtRip3U1hTAAAcGwEr5VVYLx2N5OuJxYZPYRz7H5zKxAmgHodDT9PWoo+2l10QTEmY6uRA7gJkxP0zX8vJoAGBZiAdUbOnW24iY/9otNN/JZgHWaho3a3DGECSNcO01ArfPY8h4O1u+We4ZgjdPhq8Qj6a3fHICaApg7HY2JJ4EUcq90dd30Dz4U8kNtxH3ppd8MwJoBMeuN+bA917tTgGRyp3Q3qgskBp36+g8mJvexPxwSQzX6YgBdRF2BkluImdNcOn/bqj+vwN483BzfgL7gMPbRDjgwTQG6H4Id4Ahs8jchWPI9r0U87ZCnxXecus2IMQh/0RC/0xP5oveeNrEpUYh1WYCWWYwmWOLa8Zx+8F/CTIx2azlqI/uiH3uiJnuiE1nvW8atGJdZjJVZiJZbiHdRoB0reFaGdrQsyR4hXAMG0Q7ukv9XXQjsAw2q5HDMF5sC5k8TXXojIIyYAIocxARA5jAmAyGFMAEQOYwIgcph9jwEL0QcD0BEdrUtOO7Aeq7EAn2gHQjmUoDe6oTX21Q4kzWZUYjWWo1o7kOZsSgDFOAUTMBJttQPJYzWewyy8DhYLtUlLDMe3MRKHWvvqTh0+xjz8DS+iUjsU+xThInweamZW1NsinKI9aJ4l/U3AA3CDJVUkvWwVmIne2kNml35YrH5Ygmyz0Vl76DxJcgIwtz6Uya0WM9FGe+hscRG2qR+QoFs8FhBNbgLoiSXq50DQbRW+oT18NrhW/UCE23bgdO0hzCupCeAoQ+v7RbVtxzjtIdR2ufpBkEgBJ2oPYx7JTABHoVr92IfdanGW9jBqGood6odAYtuIg7SHMqckJoDOMbtpnG3bhkGaw6j5rL0Uj+Mrmp0X0x6zEre0iu0eRlftEETsg0c0lxPXTADX4KuKe5c1DKO1Q3DKmQlaifdQXKkdgob9sUX98ktyW2nVS1WNJe0rQDE+UD/ekttmvVrCelcAV1j/xp8/X8MY7RCcMRaHaocgal9crrVrrQTQCpdpddmYG3gfICLJqt0MAFfsWYI0YloJ4ELsr7Rnc/pbesGcNCfiCO0QxHXABJ0d6ySAIlyl013DpmgH4IRkjvJ1OpOYdBLA6IR9h2uQxN9NtknqdVYPnTdKdRJA8r7DNbhaO4DEuz6xd1pu0NipRgI4FkdpdDUS4xL0boONuiX4WcsQHBP9TjUSwHUK+4xKsZsvdUTmGhRrh2CQwk9G9AmgV4wW0ghiIvbTDiGx2uL72iEY9R18PepdRp8ArrdurT9ZbTBRO4TEusyqlf7kFUR/DynqH8ZOGB91FyM3OSFTnGxTgiu0QzDue1GvMRV1ArgKLSPeY/S6OJDkNJyLLtohGFcS9UvB0SaAUlwcbfeU8KVgeQUJfnic7lK0jnJ30SaAiXqzniLVG6O0Q0icU9BHO4RItMMPotxdlAmgBSZH2TVVyXxdVZM7I3p1lBPLo0wAYyxfOEvScBypHUKiDE7QAiD5HBTlOoFRJoBrI9yXPr4ULOl67QAi9aPo7iFFlwBGYmBk+7LBWThEO4TEOBhnaIcQqQEYHtWuoksA7nyHq1fk0B0P066xeLk1MyL7aYkqAfTDCVF1yRo/cOSZh2ntcYF2CJEbhcOj2VFUCSC5kziza4VJ2iEkwg+jfTJuiYjuIUWTALomeBJnLldiH+0QYq8kgatHenFONBPLo0kAVzv6dvwBOE87hNi7AGXaIagojual4CgSQFtcFEVXrHRdwuc+mlbo8K3US6KY+xjF6Tkp4ZM4c+mJ72iHEGun4TDtENS0jWLmjPkEENGljLVce/wpK8mrR+V3lfmvzuYTwLk40Pg+bHY0vqEdQmwNxTe1Q1DVFeNM78J0AihIaAUAP9z+LRbGj7UDUDfF9ONz0wngZAwwvAf7nY7e2iHEUk98VzsEdX1xktkdmE4A/O3n9p3sMK7lExQYv4dkdogHRTepwWquPssO4wB8TzsEK4wwO4nObALgHfB6LXGpdgixcznfotzN6FW0yQTQHWeaDD1WLtcq/xxTrZgy9xiDHuYaN5kA3JvEmV17nK8dQqx8P4Hl44MqMlltylwCaI8LzYUdQ0rln2MpqeXjg7rI3MRycwngMicncWbn2qo2YZzJ1ZQaKcUlppo2lQBK8ENTIceWW+vaheFGBQA/JpsqqGMqAUzgg69mhmCYdgixcBxXVG7G2MRyMwlAochhLPCxqBd8eSwTQxPLzSSA7zo8iTOXb0df/jl2euNk7RCs1AunmmjWTALgb7rMXKlvF0bSy8cHZ+TKyMRgD8XRhocivs6LuvxzzHTCOdohWOsYExPLTSSAHxkfivhyocZ9GFc7UD4+OAO1teQTQA9O4sxpEtpoh2CtNuaedyfCGfiadJPyCWAK33jLKeLyz7FyMfbTDsFqhfJP16QTQEe+857XtSjWDsFKLUy+854QF6KTbIPSCYCTOPPrhrO1Q7DSWIfKxwclPrFcNgG0crSKi18uFkrLz63y8UFdITuxXDYBXMhJnJ4MwAjtEKxzAo7QDiEW2mOCZHOSCYCTOL3jq1JNcUS8Ep1YLpkARuPQyAcjrk6KqvxzTPTDSO0QYqMHTpdrTDIB8DVXPzha6XhXxI8b5JqSSwDDcJTCUMTXuGjKP8dCN0fLxwc1BMdINSWXAPgdzp9ivhS8h6vl44MT+2mTSgC9cIrSUMTXJXzvDQDQlu9G+naq1MRyqQTASZz+tYmi/HMMXOpw+figxJbckfmx7YTxioMRX5N56et8+figviczsVwmAVzFSZyBdOXsd5yHbtohxFKJTOKUSAClvJQN7DrHH39xjaTgLpVYeF8iAUw0V7Yg8fpilHYIqk5GX+0QYktkYnn4BNCCxa9DcXsNXD48DkNgYnn4BDCGkzhDGYGh2iGoGYzjtEOItQNxVtgmwicATuIMy90aCvz9H9YNYe8hhU0AIzFQewxi72xHK+F1x2jtEGIv9MTysAmAOTw8o+WfLcby8RJC3kMKlwD64QTt/ieCwfLP1mL5eBmjwk0sD5cAOIlTRitM0g4hciwfLyXUPaQwCaArJ3GKudKxdylZPl7OOWEmlodJAJzEKcdY+WdLnc/y8WJCTSwPngDa4iLtnieKofLPVirg6pGiQkwsD37STeIkTlGGyj9b6TSWjxcVYmJ50ATASZzy3Hmk6vbrzyYEnlgeNAGciwO1+5w43zJR/tlCLB8vryvGBftgsATA73BmuPFaNcvHmzAl2CP5YAngZAzQ7m8iGSj/bB2WjzejL04K8rFgCYDf4cwwUP7ZOtezfLwhge4hBUkAgzBcu6+JJV7+2TIdZSvbUZpAE8uDJAB37lZHT7z8s2VYPt6kANeP/hNAd5yp3c9EEy7/bBWWjzcrwMRy/wmAkzjNao/ztUMwhuXjzSry/1Kw3wTASZzmiZZ/tgjLx5vne2K53wTASZzmHSxZ/tkiZ4iWj9+s3R0re1KKS/x9wF8C4CTOaAiWf7aI7GtOd2t3R8wfsUuwtcn+Jpb7SwATOIkzEoLln61xrGj5+HfwinaHxHyOxwVb8zmx3E8CECtISHkl71Gr7MtjU7W7I+rXSAm25mtiuZ8E8F1O4oyMWPlnS8iWj/8YT2l3SNRizBFszdfEcj8JIHm/leyVtJp5suXjf4sa7Q4Ju1W0NR8/qd4PCydxRus8mfLPVpAtH78J92l3SNzfsUiwNR8Ty70nAE7ijJZQ+WcryJaP/z0qtTtkwG9FW/P8xMVrAuAkzuiJlH+2gGz5+B24U7tDRjyCTwVb8zyx3GsCmJLQt9NsJlL+2QIXi5Y9uQ9rtDtkxC5MF2zN88RybwmgY4LfT7eZQPlndS1EXwBOYZp2h4z5g+g7gR4nlntLAJzEqUOg/LM62fLxz2CZdoeM2Yo/CLbmcWK5lwTASZx6Qpd/Vif7AvBvtLtj1HTsFGzN08RyLwmAkzj1hC7/rEy2fPx8vK7dIaPK8bBga54mludPAJzEqSve6y/KRv8r7e4Yd6vwS8F5b93nTwCjRSdxkl8hyz+r6ocTBVv7AM9qd8i49zBbsDUPE8vzJ4BkvZIaR/GdghVwrfosbkOddociIHuXI+/E8nwJYJjoJE4KIlT5Z0VdMVawtXWYpd2hSMzDfMHW8k4sz5cAOAFIX6jyz4pky8f/DtXaHYrI7aKt5fkJzp0AZCdxUlAhyj+rkS0fvw13aXcoMo/jQ8HW8kwsz50AZCdxUlAhyj+rkS0ffw82aHcoMrWiLwXnmVie6wdcdhInhRG4/LMS2fLxtbhDu0OR+hM2CraWc2J5rgTgc3nBPCSfb8ZDrWBbgcs/KxkvWj7+SdGLYvttE13yNOfE8uwJoBQTBYPYITrZMR4WiLYm+0jNNNlHl7Jz5eNgOrYLtpZjYnn2BDBRdBLnww6uJ1wkunJtwPLPKmTLx7+CN7U7FLl1+LNgazkmlmdLAC0wWTCAFF5GiWB78dAfvxdtLz6PZGUjTfYEoGxuFX3tKevE8mwJQHYS57NoI9haXBSjHEsF2xshOrHGHNny8cvxgnaHVKzAXwVbyzqxPFsCkJ7EGaByeQIMEf72Go+JQbJR/saJF4Az91xSlonlmROA9CTOfzmaAIbiQXwh2N4Y9NDuUl7dRRcxWYuHtDuk5jW8IdhalonlmROA7He4W7Cv1yUKE+ZI7MDvBNsrwpXaXcrratHy8XeI3g2Pm9tEW8v4U50pAfTDCYK7/QjPYqijbxT2wP64ExWCLfou/xyxdvi+YGtV+KN2h1Q9hQ8EWzsp08TyTD+Ysk+cp6IWR8qOS2wUYAi24B7BFn2Xf46YbPn4P4i+ERc/dcITgzK8ndE8AchO4lyPWYCjdwCwu+e3aZZ/jpRs+fiaBK8A7NW9WCvYWoaJ5c0TgIlJnIPlRyYmhkK5/HOkJoiWM3sMq7Q7pG676CzIDBPLmyYA6UmcdwI4KEFV7vw6EgVQLf8cIeny8bK3wOJqBqoEW2s2sbzpqSQ7ifNebIDLXwCADjgYwGLMFWyzF76t3a2MviNaPv4l/Fu7Q1bYhPsFW2s2sbxxAjAzidPlBIDdN0BlX+qw86VgvgBsxq2i80qbTCxvnADOFZ7E+R8ArieAIQCkyz8f4738c4T9/JZga0vwonaHrPExnhZsrSvOSf/P9ARQIFwBoP412KKYvMFuSsMjUKXyz5GRLR//GwfXj8ju16KtXZf+mD89AZiZxNk3IUWugxq4ex6WUvnniPTAaYKtleNR7Q5Z5W28KthaX4za+x/pCUB2Esetu//p9hcAoCX6AQB2YYZgq4WW1WvyUIPGh9tFa+QlgewdkbSf9L0JQHYS5wr8bfe/uZ4A9n4JmCla/vkCdNTu2B4dMEGwtQr8SbtD1vkr3hdsbcTen8q9CUD2Hu7UPZM4mQCG7P7nVtE3222q2eypDq1nd2OLdoeskzL9UnB37EJKbFuz53XVUtF247ntXRSkK3YItrvB849dn8D7ON5D662wTrBXOz0+iRqlflylNm8zPEvwheA+a3BIfbMNVwDXGJrEOVi03Xjqjba7/022/LPshXdwsl9GHsRn2h2ykqGJ5fUJoD0uFGw8fRInvwAAhWlzISIv/2xckfALwHdod8had6FSsLXdE8vrE4C5SZxMAED6KLyHvwu22yN/+WfjzhAtH/8C3tXukLW+xP8JttYKk4D6BGByEicTANB4FCIu/2yc9OqRlN3tqBFs7Uq0rE8A54mu2f942iTOspgWtpaWngDmik5yGYKjVXt2tGj5+H9jnmpvbLdKeGL5+PoEcKlokLem/burKwE11RVd0/5L9recZP0m/2TPHf7+z0d2YvklQCEOwyDBJuc0+v02JHA7SZOeCv+CTwRbPktxhaBWGC3Y2if4i1pP4uJd0WukoehZmP5esIDGOZx3ABqkj0SN6J3uVhim1qtjsY9ga3eIfsNNKtmrpFGFohNLl+Afaf9VwCuAPRqnQtnyz3pTgyX3LHuPO7lmi04sP6oQfQWba/yUu2fT5YccNrjRtKsqzBRsu49aryTPHdmn3Ekm+VJwn0LB9frK8Uij/5a8Pxx3bZoslzVNsOCF3oqLcnuWfc8t2R4WfFeyS6Fg2c47mkzidHct4EwafwmQLP8suYqjP3LnzgNYrdaLuJGcWN62UGy9sYpmc914BZCu6Q1RufLPklUH/JE6d6TnuiXdTLH5kjWFYnPUmwZVgv5Rjon1mr4TsQLPC7W8Wa1PUnuWne2efBViE8s3FwotVLWzWRWXw0ULjMRf32aPzKQe6EguNaazZ74A5Nc0oeu+TwuFJl88hPIm/4dvATZW3Gxx1FeFyj8vUuuTzLkju+KdGz4Xmli+sBD/EmgmlWHNW74D0FTz16Jkat9IHEHNPU9Viz/ObhN5Kfj1Qjwr8P7VbCxp9v94C7Cp5gngqd2VE8IoxwK1Hr0lcO/+IzylFn+cLW700l0wNXihEBsxO3RDtzb7P+0blhyiPZonAInyz38WnR7iTx0eDN3GbaJ1b1wS/s7J89hYCGB6yGZez1D5bkh68QECAPTIsHTWvc3unfizE3eq9unOkNeP5bhXNf44m7O78kZwd9RPB34Rc0I1k2lRCt4CzKT5NUA1fh6qxbsVnwEAwMchH0j9BNWq8cfb1aGu/v6BlxuWBLsaOwI38yhey/B/eQswk0yzI+/DwsDtrcHN2l3Cz7Eu8GcX4AHt8GPtTTwR+LPb69dyrE8AS/CTgM18XL+yWDOcCJxJplGpxThsDdRaHX4gOqswmPW4OODvoS0Yx+//IU0MvLbEjfUvXzXMUbst0O2cKpyd8W2w7jhAe2SslPnOyEpcGOgH4ad7qi/pejbQ15hafF/gGYjrvsQYVAX43APNbz8X4wmfxQUqsxYTG6debMHWLdsKumN9F1Dx8/TcbGEQoL6ar59tF8aHPPXPVD+WUtv1IUdiGLb63OPjuwvWIr002C6M83VH+TOMyLo8Ee8AZJPtq9GjGIsKz63U4prQp42sKZji4ypmC87GQyH3mJyCM2F78k+c4OtZ0gyck/1F4vHY4CmHPF1fViCLV9Wzqq3btByjdgjme2rjPzjW5yli/goAAI7Dh57afAs9QpzuDcaqH0up7UaB0dgfz3ra13qMy9dUR0zD9pyNLMyzjmALVKkPqq1b7rf/C3E+Psn5+S/xX2jl+/SIJgEApfgJvszZ3seY0GhtpOCYAJo6Be/m3M923IH9vTVVhuuxCHXNmqjA/Tg+7wE8XH1I7d2q886R/ApG45kMKbgGr2LiniqD/kSVAACgLS7Ba6jJcPo9jTMEZ4gyATRXiJGYleGOQB0W4vrM1T8yf/9Yg6mYijIchd7ojFbYgY0ox1t4z9P3PD4CzK4l+uOdnH9jJ57EkyjBERiMMnRAC2xFOZbiTcV5/35UYCZmYj8chT7oijaowUasxgIsDPGuCXlTh5fwElqgD45EN7RHCbZhNZbhTazN9pFcNyDW4OlAYfAtwFyG5kkA9XbgzdAvemrajNkCc0woiBq8632itsz3scaYAHLh9RFZRD4BtEFv7U5ZjemRLCKfAAZbULPeZr1YLYHsIZ8A+BsutwIul072kE8AfAswH94FIGvwCiB6TABkDekE0BldtbtkPaZIsoZ0AuBSoPmV4UDtEIjqSScAXt56wWsAsgQTgAbeKCVLyCaAQj7i8oRXAGQJ2QRwWMDZaq4ZnKDlLCjWZBMAvwB4U4rDtEMgApgAtHCkyApMADo4UmQFyQTQEv20uxMbvA1IVpBMAAP3LjZMefRFqXYIRLIJgL/VvCvCQO0QiGQTAL/X+sHRIgtIPo/mKe0HR8tGL+CzHH+6L8ZqByhNLgF0wMHanYkVJgAbzcALOf60Z/ISgNxXgCMzFr6kbLqjk3YIRHIJgL/R/OKIkTq5BHCEdldihyNG6uQSABe58ItrJ5E6uQTQWrsrscMRI3VyCeCz8E04hiNG6uQSwALtrsTOQu0AiOQSwEPaXYmZCjynHQKRXAJYFLCWsKumYpt2CESScwEuxwbt7sTGAvxGOwQi2QRQjmFYrd2hWFiEUdipHQSR9IpAyzAQD2h3yXI1mI5hvFYiO0ivTrsGE/BLjMEglHkoE15m5GWYz7Arx5+2QpmBfa5DZd6/sx6f41U8ji8M7J8oEBPLUy/HzR7/5o34hYH9n4AVOf70ZPzNwD6vxKMGWiUyTL46MBHFBhMAkcOYAIgcxgRA5DAmACKHMQEQOYwJgMhhTABEDmMCIHIYEwCRw5gAiBzGBEDkMCYAIocxARA5jAmAyGFMAEQOYwIgchgTAJHDmACIHMYEQOQwJgAihzEBEDmMCYDIYUwARA5jAiByGBMAkcOYAIgcxgRA5DAmACKHMQEQOYwJgMhhTABEDmMCIHIYEwCRw5gAiBzGBEDkMCYAIocxARA5jAmAyGFMAEQOYwIgchgTAJHDmACIHMYEQOQwJgAihzEBEDmMCYDIYUwARA5jAiByGBMAkcOYAIgcxgRA5DAmACKHMQEQOYwJgMhhTABEDmMCIHIYEwCRw5gAiBzGBEDkMCYAIocxARA5jAmAyGFMAEQOYwIgchgTAJHDmACIHMYEQOQwJgAihzEBEDmMCYDIYUwARA5jAiByGBMAkcOYAIgcxgRA5DAmACKHMQEQOYwJgMhhTABEDmMCIHIYEwCRw5gAiBzGBEDkMCYAIocxARA5jAmAyGFMAEQOYwIgchgTgAtqFT5JscAE4IJ1gT+5Vjt0MosJwAVfYnvAT36hHTqZxQTgghQ+CvS5DdiiHTqZxQTghucDfeqv2mGTaUwAbngmwk9RjDABuOENvOv7M6swWztsMo0JwA11+LHvz/wk8K1Dig0mAFe84PM+wBt4SDtkMo8JwB3j8b7nv7saY1CnHTCZxwTgjgqMxhpPf3MzTsPn2uFSFJgAXLICg/B23r/1H3zTw9+iRGACcMsXOA63YUfWP6/BTAzBMu0wKSpMAK7ZhuvQC3/CpmZ/shUPoh8mYbN2iBSdFtoBkIJVuBiXYhiOQVd0RiHW4HO8gXk5rgwooZgAXFWDuZirHQRp41cAIocxARA5jAmAyGFMAEQOYwIgchgTAJHDdBNASqFVjX2SPJ47InQTQLWRVqus2yfJ47kjQjcBVBhpdWuIPzWzT5LHc0eEbgL4zECbm/OcGp8a6ckqI61SdibOnXxnxxYj8yRUzx3dBLDcQJsr8vz5BmwU32e1odORsltlYMGy9RmmSDW20kBP8p2xRmlfAcgXnngr79+YL77Pt7l6TuRqsUC8TY1z5wuUi7fpg/ZjwJfFW8w/wWWewj5Jnvyoa5w7c8RbjJUxSIlulWidd5+Hok54rwO0h9FJg4SPYh0OybvPUmwV3uto7WHU1RJfig7nLE97fV10n4u1B9FZ74kex9c87fMB0X1uQonuEGp/BdiOP4q2N0Pwb3k1XbQ18k7jOMrucyYXYSnDNrF86rWSTRFWiO3zU3xFewidVYLPxI7jMhR53Os/xPZZiQO0h9AGPxMazl0+vouPEjuIY7WHz2nnih3Hb3veZ1/sFNrnjdrDZ4cSLBMZzlt87fUJkX2yep6uArwochwf87XXqSL7XMprxwZ9URV6OOf7HM52+Dj0Ptegs/bQOa8Tvgh9HD9FB1/7LBa4jVzNZ0fpxod8NPc5vup7n4NDPtLZhm9pDxsBGIbqUMexAgN97/MglIfaZy2/OjZ1VYjh3Ih+gfZ5IrYH3udOnK49ZLTbGSG+lVfjhED77I+NgfdZhyu1h8xGF2BXoOEsR//A+zwWmwPtsxKnaA8XpRmJioC//YP9+APAYfg00D5rMFF7uGx1Itb6Hs55Ib+Hfx1Lfe9zJQ7XHipq4gh84Ps4LkHvUPvsgld873MNjtceKpt1wZM+BrMKP/L89Da7VpiGGs/7rMVdaKM9TJRBW8xErefjuAu3o1XofbbAjb7eY/kLyrSHyX6jMN/TAbwfB4nt83A85+k25GwM0R4eymEo/u7hKNbh2RBfG5s6GLM8fXl9CydqD098HI8/53g0uAq/wMHi+xyAGVifdZ8bcRcGaQ8LeTAYd2NT1uO4DtMFf/gb9MAvc9wRqMQDGKE9LJkVaAeQQyt8E8eiD3qiA0pRg61Yg+VYiLlYAlMLKbbAYByHAeiFjmgDoBLrsRKL8TLmY5f2gJBnxTgSx6EfeqIjWiOFSqzDSryLeViAGkP7LEB/DMcR6I0ytEELVGITVuB9vIzXDa0mSERERERERERERERERERERERERERERERERERERERERERERERERERERERERERERERERERERERERERERERERERERERERERERERERERERERERERERERERETZ/D8FWE9OSp8fmAAAACV0RVh0ZGF0ZTpjcmVhdGUAMjAxOS0xMS0xNlQxMzo0MDo0MyswMDowMJce7usAAAAldEVYdGRhdGU6bW9kaWZ5ADIwMTktMTEtMTZUMTM6NDA6NDMrMDA6MDDmQ1ZXAAAAGXRFWHRTb2Z0d2FyZQB3d3cuaW5rc2NhcGUub3Jnm+48GgAAAABJRU5ErkJggg==;" parent="1WH3mMz11Aq4HH0t9_Tg-123" vertex="1">
          <mxGeometry x="165.5" width="70" height="70" as="geometry" />
        </mxCell>
        <mxCell id="1WH3mMz11Aq4HH0t9_Tg-105" value="" style="shape=mxgraph.signs.transportation.bus_1;html=1;pointerEvents=1;fillColor=#000000;strokeColor=none;verticalLabelPosition=bottom;verticalAlign=top;align=center;fontFamily=Roboto;fontColor=#FFFFFF;" parent="1WH3mMz11Aq4HH0t9_Tg-123" vertex="1">
          <mxGeometry x="274" y="1" width="59" height="69" as="geometry" />
        </mxCell>
        <mxCell id="1WH3mMz11Aq4HH0t9_Tg-106" value="" style="shape=mxgraph.signs.transportation.airplane_3;html=1;pointerEvents=1;fillColor=#000000;strokeColor=none;verticalLabelPosition=bottom;verticalAlign=top;align=center;fontFamily=Roboto;fontColor=#FFFFFF;" parent="1WH3mMz11Aq4HH0t9_Tg-123" vertex="1">
          <mxGeometry x="369.5" width="60" height="69" as="geometry" />
        </mxCell>
        <mxCell id="1WH3mMz11Aq4HH0t9_Tg-107" value="" style="shape=mxgraph.signs.transportation.vehicle_ferry;html=1;pointerEvents=1;fillColor=#000000;strokeColor=none;verticalLabelPosition=bottom;verticalAlign=top;align=center;fontFamily=Roboto;fontColor=#FFFFFF;" parent="1WH3mMz11Aq4HH0t9_Tg-123" vertex="1">
          <mxGeometry x="461" y="4.5" width="99" height="66" as="geometry" />
        </mxCell>
        <mxCell id="1WH3mMz11Aq4HH0t9_Tg-108" value="" style="shape=mxgraph.signs.transportation.tram_2;html=1;pointerEvents=1;fillColor=#000000;strokeColor=none;verticalLabelPosition=bottom;verticalAlign=top;align=center;fontFamily=Roboto;fontColor=#FFFFFF;" parent="1WH3mMz11Aq4HH0t9_Tg-123" vertex="1">
          <mxGeometry x="591.5" y="9.5" width="99" height="52" as="geometry" />
        </mxCell>
        <mxCell id="1WH3mMz11Aq4HH0t9_Tg-109" value="" style="shape=mxgraph.signs.transportation.taxi;html=1;pointerEvents=1;fillColor=#000000;strokeColor=none;verticalLabelPosition=bottom;verticalAlign=top;align=center;fontFamily=Roboto;fontColor=#FFFFFF;" parent="1WH3mMz11Aq4HH0t9_Tg-123" vertex="1">
          <mxGeometry x="623.5" y="93.5" width="52" height="54" as="geometry" />
        </mxCell>
        <mxCell id="1WH3mMz11Aq4HH0t9_Tg-110" value="" style="shape=mxgraph.signs.transportation.ferry;html=1;pointerEvents=1;fillColor=#000000;strokeColor=none;verticalLabelPosition=bottom;verticalAlign=top;align=center;fontFamily=Roboto;fontColor=#FFFFFF;" parent="1WH3mMz11Aq4HH0t9_Tg-123" vertex="1">
          <mxGeometry x="263" y="85.5" width="81" height="63" as="geometry" />
        </mxCell>
        <mxCell id="1WH3mMz11Aq4HH0t9_Tg-112" value="" style="shape=mxgraph.signs.travel.car_rental;html=1;pointerEvents=1;fillColor=#000000;strokeColor=none;verticalLabelPosition=bottom;verticalAlign=top;align=center;fontFamily=Roboto;fontColor=#FFFFFF;" parent="1WH3mMz11Aq4HH0t9_Tg-123" vertex="1">
          <mxGeometry x="380.5" y="87.5" width="49" height="70" as="geometry" />
        </mxCell>
        <mxCell id="1WH3mMz11Aq4HH0t9_Tg-114" value="" style="shape=mxgraph.signs.travel.escalator;html=1;pointerEvents=1;fillColor=#000000;strokeColor=none;verticalLabelPosition=bottom;verticalAlign=top;align=center;fontFamily=Roboto;fontColor=#FFFFFF;" parent="1WH3mMz11Aq4HH0t9_Tg-123" vertex="1">
          <mxGeometry x="466.5" y="92.5" width="66" height="56" as="geometry" />
        </mxCell>
        <mxCell id="1WH3mMz11Aq4HH0t9_Tg-115" value="" style="shape=mxgraph.signs.travel.stairs;html=1;pointerEvents=1;fillColor=#000000;strokeColor=none;verticalLabelPosition=bottom;verticalAlign=top;align=center;fontFamily=Roboto;fontColor=#FFFFFF;" parent="1WH3mMz11Aq4HH0t9_Tg-123" vertex="1">
          <mxGeometry x="547" y="92" width="62" height="59" as="geometry" />
        </mxCell>
        <mxCell id="1WH3mMz11Aq4HH0t9_Tg-116" value="" style="shape=mxgraph.signs.travel.drinking_fountain;html=1;pointerEvents=1;fillColor=#000000;strokeColor=none;verticalLabelPosition=bottom;verticalAlign=top;align=center;fontFamily=Roboto;fontColor=#FFFFFF;" parent="1WH3mMz11Aq4HH0t9_Tg-123" vertex="1">
          <mxGeometry x="82" y="85" width="55" height="68" as="geometry" />
        </mxCell>
        <mxCell id="1WH3mMz11Aq4HH0t9_Tg-118" value="" style="shape=mxgraph.signs.travel.elevator;html=1;pointerEvents=1;fillColor=#000000;strokeColor=none;verticalLabelPosition=bottom;verticalAlign=top;align=center;fontFamily=Roboto;fontColor=#FFFFFF;" parent="1WH3mMz11Aq4HH0t9_Tg-123" vertex="1">
          <mxGeometry x="170.5" y="77.5" width="56" height="79" as="geometry" />
        </mxCell>
        <mxCell id="1WH3mMz11Aq4HH0t9_Tg-120" value="" style="shape=mxgraph.signs.healthcare.wheelchair_accessible_1;html=1;pointerEvents=1;fillColor=#000000;strokeColor=none;verticalLabelPosition=bottom;verticalAlign=top;align=center;fontFamily=Roboto;fontColor=#FFFFFF;" parent="1WH3mMz11Aq4HH0t9_Tg-123" vertex="1">
          <mxGeometry x="82" y="1.5" width="56" height="69" as="geometry" />
        </mxCell>
        <mxCell id="1WH3mMz11Aq4HH0t9_Tg-121" value="" style="shape=mxgraph.signs.healthcare.assistive_listening_system;html=1;pointerEvents=1;fillColor=#000000;strokeColor=none;verticalLabelPosition=bottom;verticalAlign=top;align=center;fontFamily=Roboto;fontColor=#FFFFFF;" parent="1WH3mMz11Aq4HH0t9_Tg-123" vertex="1">
          <mxGeometry x="9" y="9" width="55" height="57" as="geometry" />
        </mxCell>
        <mxCell id="1WH3mMz11Aq4HH0t9_Tg-122" value="" style="shape=mxgraph.signs.healthcare.deaf;html=1;pointerEvents=1;fillColor=#000000;strokeColor=none;verticalLabelPosition=bottom;verticalAlign=top;align=center;fontFamily=Roboto;fontColor=#FFFFFF;" parent="1WH3mMz11Aq4HH0t9_Tg-123" vertex="1">
          <mxGeometry y="87.5" width="52" height="55" as="geometry" />
        </mxCell>
        <mxCell id="1WH3mMz11Aq4HH0t9_Tg-125" value="" style="group" parent="1" vertex="1" connectable="0">
          <mxGeometry x="552" y="-368" width="329" height="249" as="geometry" />
        </mxCell>
        <mxCell id="1WH3mMz11Aq4HH0t9_Tg-97" value="" style="ellipse;whiteSpace=wrap;html=1;aspect=fixed;fontColor=#0616B4;align=left;strokeColor=#E22219;strokeWidth=38;" parent="1WH3mMz11Aq4HH0t9_Tg-125" vertex="1">
          <mxGeometry x="40" width="249" height="249" as="geometry" />
        </mxCell>
        <mxCell id="1WH3mMz11Aq4HH0t9_Tg-98" value="&lt;font size=&quot;1&quot;&gt;&lt;span style=&quot;font-size: 38px&quot;&gt;TUBE MAP&lt;/span&gt;&lt;/font&gt;" style="rounded=0;whiteSpace=wrap;html=1;strokeColor=#0616B4;strokeWidth=5;fontColor=#FFFFFF;align=center;fillColor=#0616B4;fontFamily=Gill Sans;FType=g;" parent="1WH3mMz11Aq4HH0t9_Tg-125" vertex="1">
          <mxGeometry y="99" width="329" height="60" as="geometry" />
        </mxCell>
        <mxCell id="Wp-hAPU8DO_UpOxfyrP1-10" value="" style="ellipse;whiteSpace=wrap;html=1;aspect=fixed;strokeWidth=5;" parent="1" vertex="1">
          <mxGeometry x="24" y="247" width="30" height="30" as="geometry" />
        </mxCell>
        <mxCell id="Wp-hAPU8DO_UpOxfyrP1-8" value="" style="ellipse;whiteSpace=wrap;html=1;aspect=fixed;strokeWidth=5;" parent="1" vertex="1">
          <mxGeometry x="504" y="401" width="30" height="30" as="geometry" />
        </mxCell>
        <mxCell id="1WH3mMz11Aq4HH0t9_Tg-16" style="rounded=1;orthogonalLoop=1;jettySize=auto;html=1;exitX=1;exitY=0.5;exitDx=0;exitDy=0;endArrow=none;endFill=0;strokeColor=#037B35;strokeWidth=10;fontColor=#0616B4;" parent="1" edge="1">
          <mxGeometry relative="1" as="geometry">
            <mxPoint x="-195" y="424" as="targetPoint" />
            <mxPoint x="-319" y="424" as="sourcePoint" />
          </mxGeometry>
        </mxCell>
        <mxCell id="1WH3mMz11Aq4HH0t9_Tg-138" value="" style="group" parent="1" vertex="1" connectable="0">
          <mxGeometry x="686.5" y="4.5" width="67.5" height="30" as="geometry" />
        </mxCell>
        <mxCell id="1WH3mMz11Aq4HH0t9_Tg-128" value="" style="ellipse;whiteSpace=wrap;html=1;aspect=fixed;strokeWidth=5;" parent="1WH3mMz11Aq4HH0t9_Tg-138" vertex="1">
          <mxGeometry width="30" height="30" as="geometry" />
        </mxCell>
        <mxCell id="1WH3mMz11Aq4HH0t9_Tg-129" value="" style="ellipse;whiteSpace=wrap;html=1;aspect=fixed;strokeWidth=5;" parent="1WH3mMz11Aq4HH0t9_Tg-138" vertex="1">
          <mxGeometry x="37.5" width="30" height="30" as="geometry" />
        </mxCell>
        <mxCell id="1WH3mMz11Aq4HH0t9_Tg-130" value="" style="endArrow=none;html=1;strokeColor=#33001A;fontFamily=Roboto;fontColor=#FFFFFF;strokeWidth=6;" parent="1WH3mMz11Aq4HH0t9_Tg-138" edge="1">
          <mxGeometry width="50" height="50" relative="1" as="geometry">
            <mxPoint x="28.5" y="9.5" as="sourcePoint" />
            <mxPoint x="40.5" y="9.5" as="targetPoint" />
          </mxGeometry>
        </mxCell>
        <mxCell id="1WH3mMz11Aq4HH0t9_Tg-131" value="" style="endArrow=none;html=1;strokeColor=#33001A;fontFamily=Roboto;fontColor=#FFFFFF;strokeWidth=6;" parent="1WH3mMz11Aq4HH0t9_Tg-138" edge="1">
          <mxGeometry width="50" height="50" relative="1" as="geometry">
            <mxPoint x="33.5" y="21.5" as="sourcePoint" />
            <mxPoint x="40" y="21.5" as="targetPoint" />
          </mxGeometry>
        </mxCell>
        <mxCell id="1WH3mMz11Aq4HH0t9_Tg-133" value="" style="endArrow=none;html=1;strokeColor=#33001A;fontFamily=Roboto;fontColor=#FFFFFF;strokeWidth=6;" parent="1WH3mMz11Aq4HH0t9_Tg-138" edge="1">
          <mxGeometry width="50" height="50" relative="1" as="geometry">
            <mxPoint x="28" y="21.5" as="sourcePoint" />
            <mxPoint x="39.5" y="21.5" as="targetPoint" />
          </mxGeometry>
        </mxCell>
        <mxCell id="1WH3mMz11Aq4HH0t9_Tg-132" value="" style="rounded=0;whiteSpace=wrap;html=1;strokeColor=#FFFFFF;strokeWidth=3;fillColor=#FFFFFF;fontFamily=Roboto;fontColor=#FFFFFF;align=center;" parent="1WH3mMz11Aq4HH0t9_Tg-138" vertex="1">
          <mxGeometry x="25.5" y="12.5" width="19" height="6" as="geometry" />
        </mxCell>
        <mxCell id="p9a7X2DnO0XyT7MErzVt-1" value="" style="shape=image;verticalLabelPosition=bottom;labelBackgroundColor=#ffffff;verticalAlign=top;aspect=fixed;imageAspect=0;image=data:image/png,iVBORw0KGgoAAAANSUhEUgAAAIEAAACQCAYAAAAvKghuAAAABHNCSVQICAgIfAhkiAAAAAlwSFlzAAAOxAAADsQBlSsOGwAAABl0RVh0U29mdHdhcmUAd3d3Lmlua3NjYXBlLm9yZ5vuPBoAABFlSURBVHic7Z15UBTnm8c/wyEog8MgaGLEI4BCNGriEQ/yK1cllgdV6sYLC+MmZhcrJmrcMiaVqDk0B7G0rKjRWs/gBnDVrCFqEI8YMRHXCxF1FYmCoHI4CIqcvX9MZB2mZ5izZ8T3U/X+Md3v+z5v93z77X6f9wLl6AJsAAqABkB6CsNt4H17b+STymCgDNf/Ce4S/t2+2/nkoQYKcf2Nd6dQD0y256Y+acTj+pvujqEKiLLjvjoMDwVsDFLAxpOIL/AT0MPVBfFSwIam6YG9e/dmjBo1qpcCtl1OQkLChUWLFg0xcbodsBf9N9Md5UpliBIiMCIgIKDew8PDSBwtkbZt29Y2E+V54BdgGHDf6QWSQYnXgaB5+gPJuOihFCJwH8YCa1xhWIjAvfhXYIHSRoUI3I8EYLqSBoUI3A8V8B8o6EMQInBPFPUh2Ps1GoBeuebwbnrg7t27Xnfv3rXTtOto3bo1vr6+zjbTDtiH3odw29nGrCUUSAQqcb3r1SXB29tbio+Pl2pqaqTmWLt27RE77Z0E/Kz9k5zJAOAubvBHuEN48803lRCBBKQCntb8UdZgzTeBL7AD/StAAGzatInPPvtMCVMu8yE0ZSpu8PS5W1CpVNLWrVudXRM8Ck7xIVhTE/R3RgGedCRJYtasWRw4cEAJcwlArKMztUYE6qYHUlJSfpMkiach/PHHHyZvTG1tLa+//jrnzp2z5T+wBhWwERjqyEyFn8BB3Lt3j7Fjx5Kfn+9sU77Af+NAH4IQgQO5efMmY8aMoby83NmmHvkQOjgiMyECB5Odnc2ECROoqalxtqlu6JuOdvsQhAicwOHDh5k9e7YSpvoDSdjpQ3DJIIangU2bNtG1a1eCgoKcbWoceh9CvK0ZiJrAiSxZsoRDhw455L3dDP+GHZNahAiciCRJ7Nq1S6nRxAnA67YkFCJwMg0NDc31sjoKD+AHbPAhCBG0LGzyIQgRtDzaoW86+luaQIigZRIG/IulkYUIWi4WvxKECFouFv+3wlnkQqKiogp69uxp92DLEydOaM+ePdvJ1vRCBC7kxIkTnRYvXtwpOjrarnx27Njx2+TJk20WgXgduJBH4xCysrJcWg4hAhdz7949xowZQ0FBgcvKIETgBig4DkEWIQI34fz580ydOpW6ujrFbQsRuBH79+8nPt7mHmGbESJwMzZu3MiyZcsUtSlE4IZ88sknbNu2TTF7QgRuyKO5DOnp6YrYEyJwU2pra5k0aRLXr193ui0hAjdGp9Px3XffOd2OEIGFBAYGusTutWvXnG5D9B1YSLdu3WrDw8O5cuWK0aIbzuTixYu3k5KSTpuLk5iYGCxz+CXgg8d+lwIXgBPoV5lvRIjAQry9vb2PHj3K+vXrKSwsdIqNnJwcjh07ZnDs4sWLHaZNmzbahuxe+Ts0JR9YAmy2IU++p8lU6aSkpKPNrtIgsJi1a9cqOa1+G39PWrHrm6CgoMDlizMLbCYO+ArsFEFlZWV7hxRH4CreB/qK1sHTjQfwthCBYKQQgSBEiEDQWohAINzGAiECAcJt/MTg7+9PWFgYgYGB+Pn58eDBA8rKysjLy8PexcKFCNycyMhIdu7cSY8ePfDwkK+48/Pz2b9/P5s3bza73qIp5BZQaA2MBHphuJ3dKKDv4xH79etHv379zBro2bMnnTpZNzmmuLiY06cNO84iIyPp3LmzVfkAFBUVkZ2dTUNDg8k4vr6+9O3bF43Gsg3aqqqqOHPmDBUVFYD+KR0yxNSud6bJzs7m5s2bjb/lOpDCw8OZOHFi42+1Ws0LL7xAdHQ0/v7Gs883bNjAvHnzqKqqsro8oO9M+ACxivkTEfz8/KSPP/5YevjwoVFHVHJysrX5AeCDfpNGl1+cCNaFoUOHSuXl5UZC6Nmzp9Ui2OTqixHB9hATE2Mkgrffftvi9F7o9zKeiZ0EBQXRvXt3OnTogFqtprCwkNOnT9v95Sponp9//pnU1FTGjRvXeEyr1VqVh121wNixY6U///xTamhoMFLjqVOnXP6UPC1h3LhxBvd+0aJFVtUEw7CRjz76SPHZMgJ5Dh8+bHNaL6CjLQlHjhzZogXQtm1bpk6dKntuy5YtSixgbRX379/n7t27Vr8GQC8CH1uMKrT3j8to374969evlz2XnJzsdiIAqK6utimdTR7DkJAQBg8eLHsuJSWF/fv3o9FoGD58uE2FEiiLTSLo319+O6S0tDSmTJnS+HvDhg22lUqgKDb1IppyAzd1eT548MCW7AUKY1NNoFYb7YkF6NffsRaNRkPv3r155plnCAgIwNPTk4qKCoqKisjMzKSystKWIgLg7e1NeHg4arWa6upqSktLuXXrlktWA3lEx44diYyMJDAwkICAAMrLy6moqOCvv/7iypUrLiubRW3JefPmSbm5uVJubq5UVlYmO3mipKSkMU5ubq60Z88e2bwGDRokrVy5Urp8+bLZyRg1NTXS0aNHpZkzZ0qenp4WldPDw0OaPn26lJaWJutXr6yslA4ePCjNmTNH0mq1BmkDAwMby37jxg2T5crLyzO4zvj4eLNl6t69u7RixQqpoKDA7PVWVVVJe/fulaZMmWLx9T4eioqKbPITWCyCTz/91OwFyCHnLPrmm2+szkeSJOn48eNShw4dzJYxJCREOnnypMV56nQ6afTo0Y3pg4ODbSqbqRvu5eUlLVmyRKqtrbU6z/T09Gav11EiUHxkUceONrklGDx4MGlpafj4yLdotVotv//+u8mPVjk0Gg2RkZE2lac5VCoVW7duZenSpXh5Wf/WHTFiBKmpqSbHEDiSJ2p4We/evZk/f77sua+//pouXbooXCLTLFy4kNhY+zYz7d+/P6NGjXJQiUxjsUQvXLjAjh07AHjxxReJiIgwinPq1CmD+fR5eXlm86yurub48eOcP3+e4uJi/P396datG+PGjaN169ayaeLi4vjqq68MjqnVapM3fPPmzaxevZqbN2+i0WiIiIggNjaWSZMmGT2h1dXVjdeoVqsZPVp+MvBPP/1EbW1t4+9Lly4ZnA8ICGDRokUmrzsvL4+MjAxKS0t59tlneeWVV0wKeODAgezbt89kXo7C6g+Q5cuXy77HLOm+TExMlLKzs6VZs2ZJfn5+snGCg4OlPXv2yNpoaGiQfHx8DOL37dtXNm5hYaGkUqlkbYSFhUk//PCDNHfuXJPnTaHRaMxe44IFC2TT1dXVSe+8847k4eFh9O2wefNm2TQrV650+jeB4mMM161bR2ZmpsGT1JTi4mJmzJhBYWGhUY2gUqkIDg42WAa2fXv5ebF+fn74+/vLNl2vXr1KXFycTe/r5hg5cqTs8W+//ZY1a9YYHa+rq2Pbtm3MnDnT4WWxBMW/CTIyMgwEoNFoeP755wkONlxsQ6fTceHCBdk8PD0N94J8NNavKW3btuXEiROMHz8eX19f2TiObpd7enoSFRVldFySJFasWGEyXX19vUPLYQ0u+TAcPnw4SUlJ3Lt3D51OR25uLnfu3KGqqoqzZ8+yZMkSevToYdLjKEmSwe/s7GyTHToRERHs3r2b0tJSUlNTiY+Pt7mFYgmBgYGyzrRLly5RXFzsNLv2oKgIVCoVa9euJT09nSlTphiNlvX19aVPnz4sXbqUnJwcBgwYIJtP05HDFRUVJCcnm7Xdpk0bxo4dy7p167hx4wbbt2+nQwfH71tpqiu3qKjI4bYchaIi+OCDD5g9ezYqVfNbBXp4eJhsITStCQDef/99rly5YlE5PD09iY2NJTMzk+eee86iNJZiati6rd28SqCYCHx9fVm4cKHJ83fu3CEzM5OMjAwKCgrMviPlRFBSUsLQoUPZvXu3xWXq3LkzK1eutDi+JZga7++qJfAsQTERDB06VLaqrKysJCYmprG9HBUVRUhICP7+/kYTUB4hJwLQtyomTpxIeHg4Cxcu5NChQ81Owhg/frxNo3FModPpZI+HhYUZfdC6C4qJwNTsoS1btpCammr0nq+qqjLZg2hKBI+4evUqCQkJjBgxAq1WS2xsLNnZ2bJxvb29CQ0NteAKLKOoqEi2tdKuXTteffVVh9lxJIqJwJQP3NSTY46mIoiMjGT69Omycaurq/nxxx8ZNGiQSVty07nMCc3cdLX6+npOnjwpe27VqlUmv3McwaBBgwgNDSU0NJTvv//e4nSKieDWrVuyx+Pi4ggKCpI9Z+o92vQP0mg0JCYmcvjwYWJiYmSr3VatWuHtLb8YqdyXuynfA+g/Qtu0aYNWq2XSpEkGcwUBdu3aJZuuT58+HDt2jBEjRjQ+FK1atSIqKop58+aZtGcp169f59q1a1y7ds2qh0sxj2FGRgY1NTW0atXK4HiXLl04c+YMa9as4fLly3h5eaHVannttdfo1auXbF7379+XPT5s2DCGDRtGfn4+aWlp5OTkUFlZSWBgIHFxcfj5+RmlKSoq4vLly0bHS0tLKS8vl33q586dy9y5cxt/f/jhhwbnt23bxhdffEFAQIBR2pdffpn09HTq6urQ6XQEBgYq0lNoDsVEoNPpSEpKYsaMGUbnOnXqxJdffmlRPufPnzcpgkeEhITw1ltvWZRfQkKCbNVfX1/Pr7/+yuTJky3K53EqKiqYM2cOiYmJJuN4eXmZrAGVRlEJzp8/X/aps5Ta2loWLFjgsPJs3LiR1atXmzy/bNkym9v327dv5/PPP7e1aEqi7KCSsrIyhgwZQmJiolW+ckmS+O233xgwYAAHDhwwOn/9+nWSk5MtHtian59PfHw8s2bNMluOrKws3njjDZvn+i9evJhp06Zx48aNZuO60KNYokLfnWgVYWFhdO3a1ej4xYsXDRZdMEenTp0YM2YMAwcOpEePHgQGBuLr68vDhw+pqqri9u3bXL16lZycHPbt22fRjVSr1cTExBAVFUXv3r3RarW0bt0anU7HnTt3yMrKIiMjg3379pntxWxKaGgo7733HtHR0URERKBSqWhoaKCwsJCMjAyWL19udpdTHx8fYmJiiI6OJjIykqCgIFQqFWVlZWRlZfHLL79QWVkpO5Vs1apVJgfSOIgjYMN4gqc9aLVaycvLy6F5/uMf/7B7PIGN4R2xZpENtKDp9teBjU/UGEOBQ6kCJgMPhQieTm4A/wRkgljC7mniHpAF/BewAX1NAAgRtGS+B2ZbElG8DgSiJnAXjh8/LtthpsSIJCECN6Gurs5lTU/xOhAIEQj0IrC670DQsvAASlxdCIFr8QDOuboQAtfiAaS4uhAC1+IBbAX+19UFEdiOWq22a2VND6AG+Gf0vmXBE4avry/vvvtujj15PGoiZgNDALsyEyhLt27dOHLkCC+99FK5Pfk87jG8APQBpgKvo98D6XE/ZhuarIOs1Wqr27Vr99CcAUmS/CTJcDGMNm3a1Ht7e7vnnCwXUlJSQn5+vsExb29vg6nujxbbmjBhAjNmzMDHx8eioXeOYh1NhialpKQcMbmmi8BqsrOzjYZ/jR8/vtl0KSkpR5qm+/v/sgjhMRQIEQiECAQIEQgQIhAgRCBAiECAEIEAIQIBYqCpW6HT6e4CBkup5eXl3Tl48OAZc+l27txpehElCxAicCOysrKM1tI7d+5c+5EjRzp10wPxOmi5WNyzKETQcvkfSyMKEbRMcoE9lkYWImh5lKFfd8DiIWdCBC2HCmAb8DIgvyi0CUTrwI3o1avXcfTD/B7nFyCumaQSYP36wH8jROBGeHl5ye3FUws4daaqeB0IhAgEQgQChAgECBEIsLN1sHXrVr/6+nrnb+T7lJCammpXb6ASGE0+EUGRYPn2bjZizevArvluApux2QlkKdaI4A+nlUJgjuPONtD8VqX/jxf6VU1ecFJZBMYUABGA+f1+7MSamqAO/ToGlu1qIbCXMvT326kCALB2engJkIi+VngGaItoZjqSBvQP2X8C04GLShj9P7iaVcHOZM1XAAAAAElFTkSuQmCC;" vertex="1" parent="1">
          <mxGeometry x="-424" y="368" width="86" height="96" as="geometry" />
        </mxCell>
        <mxCell id="p9a7X2DnO0XyT7MErzVt-3" value="" style="endArrow=none;html=1;endFill=0;curved=1;strokeColor=#0198D4;targetPerimeterSpacing=0;startSize=6;strokeWidth=10;" edge="1" parent="1">
          <mxGeometry width="50" height="50" relative="1" as="geometry">
            <mxPoint x="-245" y="414" as="sourcePoint" />
            <mxPoint x="-189" y="358" as="targetPoint" />
            <Array as="points">
              <mxPoint x="-189" y="414" />
            </Array>
          </mxGeometry>
        </mxCell>
        <mxCell id="p9a7X2DnO0XyT7MErzVt-4" value="" style="endArrow=none;html=1;startSize=6;targetPerimeterSpacing=0;strokeColor=#0198D4;strokeWidth=10;curved=1;" edge="1" parent="1">
          <mxGeometry width="50" height="50" relative="1" as="geometry">
            <mxPoint x="-319" y="414" as="sourcePoint" />
            <mxPoint x="-245" y="414" as="targetPoint" />
          </mxGeometry>
        </mxCell>
        <mxCell id="p9a7X2DnO0XyT7MErzVt-21" value="" style="ellipse;whiteSpace=wrap;html=1;aspect=fixed;strokeColor=#000000;strokeWidth=3;fillColor=#FFFFFF;" vertex="1" parent="1">
          <mxGeometry x="-211" y="313.09054190066" width="43.68599310812481" height="43.68599310812481" as="geometry" />
        </mxCell>
        <mxCell id="p9a7X2DnO0XyT7MErzVt-8" value="" style="ellipse;whiteSpace=wrap;html=1;aspect=fixed;strokeWidth=1;fillColor=#FFFFFF;container=0;" vertex="1" parent="1">
          <mxGeometry x="-205" y="320" width="31.5" height="31.5" as="geometry" />
        </mxCell>
        <mxCell id="p9a7X2DnO0XyT7MErzVt-13" value="" style="verticalLabelPosition=bottom;verticalAlign=top;html=1;shape=mxgraph.basic.pie;startAngle=0.14564279991992365;endAngle=0.9;strokeWidth=0;fillColor=#000000;rotation=-55;container=0;" vertex="1" parent="1">
          <mxGeometry x="-205" y="320.19" width="31" height="31" as="geometry" />
        </mxCell>
        <mxCell id="p9a7X2DnO0XyT7MErzVt-15" value="" style="verticalLabelPosition=bottom;verticalAlign=top;html=1;shape=mxgraph.basic.pie;startAngle=0.2;endAngle=0.3001328363021418;strokeColor=#000000;strokeWidth=1;fillColor=#FFFFFF;rotation=-55;container=0;" vertex="1" parent="1">
          <mxGeometry x="-204.6807431673406" y="318.1242854063595" width="34.58534593688469" height="32.751429187281055" as="geometry" />
        </mxCell>
        <mxCell id="p9a7X2DnO0XyT7MErzVt-14" value="" style="line;strokeWidth=1;html=1;fillColor=#FFFFFF;rotation=45;strokeColor=#FFFFFF;container=0;" vertex="1" parent="1">
          <mxGeometry x="-194.69279563115478" y="338.9268151436012" width="21.55647242558155" height="3.5080291029577926" as="geometry" />
        </mxCell>
      </root>
    </mxGraphModel>
  </diagram>
</mxfile>
